<mxfile host="Electron" modified="2024-07-12T11:10:22.218Z" agent="Mozilla/5.0 (Windows NT 10.0; Win64; x64) AppleWebKit/537.36 (KHTML, like Gecko) draw.io/23.1.5 Chrome/120.0.6099.109 Electron/28.1.0 Safari/537.36" etag="D8d5TVL-lr-bnp6c4_t2" version="23.1.5" type="device">
  <diagram name="Page-1" id="XlxlM5Ajr4PHqVxrQ_gi">
    <mxGraphModel dx="1098" dy="820" grid="1" gridSize="10" guides="1" tooltips="1" connect="1" arrows="1" fold="1" page="1" pageScale="1" pageWidth="827" pageHeight="1169" math="0" shadow="0">
      <root>
        <mxCell id="0" />
        <mxCell id="1" parent="0" />
        <mxCell id="olNieZvr7FjvWqsExC-a-36" value="" style="edgeStyle=orthogonalEdgeStyle;rounded=0;orthogonalLoop=1;jettySize=auto;html=1;" edge="1" parent="1" source="olNieZvr7FjvWqsExC-a-1" target="olNieZvr7FjvWqsExC-a-35">
          <mxGeometry relative="1" as="geometry" />
        </mxCell>
        <mxCell id="olNieZvr7FjvWqsExC-a-1" value="Azure IoT Hub" style="image;aspect=fixed;html=1;points=[];align=center;fontSize=12;image=img/lib/azure2/iot/IoT_Hub.svg;" vertex="1" parent="1">
          <mxGeometry x="640" y="783" width="64" height="64" as="geometry" />
        </mxCell>
        <mxCell id="olNieZvr7FjvWqsExC-a-5" value="ESP32 Wroom" style="image;aspect=fixed;html=1;points=[];align=center;fontSize=12;image=img/lib/azure2/other/Defender_Programable_Board.svg;" vertex="1" parent="1">
          <mxGeometry x="210" y="760" width="110" height="110" as="geometry" />
        </mxCell>
        <mxCell id="olNieZvr7FjvWqsExC-a-10" value="" style="edgeStyle=orthogonalEdgeStyle;rounded=0;orthogonalLoop=1;jettySize=auto;html=1;" edge="1" parent="1" source="olNieZvr7FjvWqsExC-a-9" target="olNieZvr7FjvWqsExC-a-5">
          <mxGeometry relative="1" as="geometry" />
        </mxCell>
        <mxCell id="olNieZvr7FjvWqsExC-a-11" value="Temperature&lt;br&gt;Relative humidity" style="edgeLabel;html=1;align=center;verticalAlign=middle;resizable=0;points=[];" vertex="1" connectable="0" parent="olNieZvr7FjvWqsExC-a-10">
          <mxGeometry x="-0.3208" y="2" relative="1" as="geometry">
            <mxPoint x="10" y="-13" as="offset" />
          </mxGeometry>
        </mxCell>
        <mxCell id="olNieZvr7FjvWqsExC-a-34" value="I2C" style="edgeLabel;html=1;align=center;verticalAlign=middle;resizable=0;points=[];" vertex="1" connectable="0" parent="olNieZvr7FjvWqsExC-a-10">
          <mxGeometry x="-0.3208" y="2" relative="1" as="geometry">
            <mxPoint x="10" y="17" as="offset" />
          </mxGeometry>
        </mxCell>
        <mxCell id="olNieZvr7FjvWqsExC-a-9" value="Sense Hat" style="image;aspect=fixed;html=1;points=[];align=center;fontSize=12;image=img/lib/azure2/management_governance/Monitor.svg;" vertex="1" parent="1">
          <mxGeometry x="40" y="783" width="64" height="64" as="geometry" />
        </mxCell>
        <mxCell id="olNieZvr7FjvWqsExC-a-21" value="" style="edgeStyle=orthogonalEdgeStyle;rounded=0;orthogonalLoop=1;jettySize=auto;html=1;" edge="1" parent="1" source="olNieZvr7FjvWqsExC-a-12" target="olNieZvr7FjvWqsExC-a-1">
          <mxGeometry relative="1" as="geometry">
            <mxPoint x="610" y="815" as="targetPoint" />
            <Array as="points">
              <mxPoint x="570" y="678" />
              <mxPoint x="570" y="815" />
            </Array>
          </mxGeometry>
        </mxCell>
        <mxCell id="olNieZvr7FjvWqsExC-a-12" value="Temperature" style="image;aspect=fixed;html=1;points=[];align=center;fontSize=12;image=img/lib/azure2/general/Input_Output.svg;" vertex="1" parent="1">
          <mxGeometry x="430" y="650" width="64" height="55.00000000000001" as="geometry" />
        </mxCell>
        <mxCell id="olNieZvr7FjvWqsExC-a-13" value="Relative humidity" style="image;aspect=fixed;html=1;points=[];align=center;fontSize=12;image=img/lib/azure2/general/Input_Output.svg;" vertex="1" parent="1">
          <mxGeometry x="430" y="743" width="64" height="55.00000000000001" as="geometry" />
        </mxCell>
        <mxCell id="olNieZvr7FjvWqsExC-a-14" value="Heat index" style="image;aspect=fixed;html=1;points=[];align=center;fontSize=12;image=img/lib/azure2/general/Input_Output.svg;" vertex="1" parent="1">
          <mxGeometry x="430" y="840" width="64" height="55.00000000000001" as="geometry" />
        </mxCell>
        <mxCell id="olNieZvr7FjvWqsExC-a-17" value="Vapor pressure" style="image;aspect=fixed;html=1;points=[];align=center;fontSize=12;image=img/lib/azure2/general/Input_Output.svg;" vertex="1" parent="1">
          <mxGeometry x="430" y="940" width="64" height="55.00000000000001" as="geometry" />
        </mxCell>
        <mxCell id="olNieZvr7FjvWqsExC-a-24" value="" style="edgeStyle=orthogonalEdgeStyle;rounded=0;orthogonalLoop=1;jettySize=auto;html=1;" edge="1" parent="1" source="olNieZvr7FjvWqsExC-a-14" target="olNieZvr7FjvWqsExC-a-1">
          <mxGeometry relative="1" as="geometry">
            <mxPoint x="478" y="830" as="sourcePoint" />
            <mxPoint x="660" y="874.5" as="targetPoint" />
            <Array as="points">
              <mxPoint x="570" y="867" />
              <mxPoint x="570" y="815" />
            </Array>
          </mxGeometry>
        </mxCell>
        <mxCell id="olNieZvr7FjvWqsExC-a-28" value="" style="edgeStyle=orthogonalEdgeStyle;rounded=0;orthogonalLoop=1;jettySize=auto;html=1;" edge="1" parent="1" source="olNieZvr7FjvWqsExC-a-17" target="olNieZvr7FjvWqsExC-a-1">
          <mxGeometry relative="1" as="geometry">
            <mxPoint x="478" y="931.99" as="sourcePoint" />
            <mxPoint x="660" y="879.99" as="targetPoint" />
            <Array as="points">
              <mxPoint x="570" y="967" />
              <mxPoint x="570" y="815" />
            </Array>
          </mxGeometry>
        </mxCell>
        <mxCell id="olNieZvr7FjvWqsExC-a-29" value="" style="endArrow=classic;html=1;rounded=0;" edge="1" parent="1" source="olNieZvr7FjvWqsExC-a-5" target="olNieZvr7FjvWqsExC-a-12">
          <mxGeometry width="50" height="50" relative="1" as="geometry">
            <mxPoint x="470" y="800" as="sourcePoint" />
            <mxPoint x="520" y="750" as="targetPoint" />
            <Array as="points">
              <mxPoint x="350" y="815" />
              <mxPoint x="350" y="678" />
            </Array>
          </mxGeometry>
        </mxCell>
        <mxCell id="olNieZvr7FjvWqsExC-a-30" value="" style="endArrow=classic;html=1;rounded=0;" edge="1" parent="1" source="olNieZvr7FjvWqsExC-a-13" target="olNieZvr7FjvWqsExC-a-1">
          <mxGeometry width="50" height="50" relative="1" as="geometry">
            <mxPoint x="470" y="830" as="sourcePoint" />
            <mxPoint x="520" y="780" as="targetPoint" />
            <Array as="points">
              <mxPoint x="570" y="771" />
              <mxPoint x="570" y="815" />
            </Array>
          </mxGeometry>
        </mxCell>
        <mxCell id="olNieZvr7FjvWqsExC-a-31" value="" style="endArrow=classic;html=1;rounded=0;" edge="1" parent="1" source="olNieZvr7FjvWqsExC-a-5" target="olNieZvr7FjvWqsExC-a-13">
          <mxGeometry width="50" height="50" relative="1" as="geometry">
            <mxPoint x="450" y="810" as="sourcePoint" />
            <mxPoint x="500" y="760" as="targetPoint" />
            <Array as="points">
              <mxPoint x="350" y="815" />
              <mxPoint x="350" y="770" />
            </Array>
          </mxGeometry>
        </mxCell>
        <mxCell id="olNieZvr7FjvWqsExC-a-32" value="" style="endArrow=classic;html=1;rounded=0;" edge="1" parent="1" source="olNieZvr7FjvWqsExC-a-5" target="olNieZvr7FjvWqsExC-a-14">
          <mxGeometry width="50" height="50" relative="1" as="geometry">
            <mxPoint x="300" y="940" as="sourcePoint" />
            <mxPoint x="350" y="890" as="targetPoint" />
            <Array as="points">
              <mxPoint x="350" y="815" />
              <mxPoint x="350" y="870" />
            </Array>
          </mxGeometry>
        </mxCell>
        <mxCell id="olNieZvr7FjvWqsExC-a-33" value="MQTT" style="endArrow=classic;html=1;rounded=0;" edge="1" parent="1" source="olNieZvr7FjvWqsExC-a-5" target="olNieZvr7FjvWqsExC-a-17">
          <mxGeometry x="-0.7736" y="-15" width="50" height="50" relative="1" as="geometry">
            <mxPoint x="420" y="920" as="sourcePoint" />
            <mxPoint x="470" y="870" as="targetPoint" />
            <Array as="points">
              <mxPoint x="350" y="815" />
              <mxPoint x="350" y="970" />
            </Array>
            <mxPoint x="15" y="-15" as="offset" />
          </mxGeometry>
        </mxCell>
        <mxCell id="olNieZvr7FjvWqsExC-a-35" value="Stream Analytics Job" style="image;aspect=fixed;html=1;points=[];align=center;fontSize=12;image=img/lib/azure2/analytics/Stream_Analytics_Jobs.svg;" vertex="1" parent="1">
          <mxGeometry x="780" y="786" width="68" height="57.99999999999999" as="geometry" />
        </mxCell>
      </root>
    </mxGraphModel>
  </diagram>
</mxfile>
